<svg id="Layer_1" data-name="Layer 1" xmlns="http://www.w3.org/2000/svg" viewBox="0 0 491.49 99.5"><defs><style>.cls-1{fill:#231f20;}</style></defs><title>Artboard 1</title><path class="cls-1" d="M25.5,70.86c-1.18,1.08-3,1.83-4.09,1.61-1.29.32-1.72.22-2.91,2-.54.54-.86.86-1.51.54s-1.4,0-2.15.11c-3.23.86-.43.65-3.66,1.08-1.72.22-3.34.32-5,.65-.32-.21-.65-.21-.75-.11-1.83.65-2.91-.11-4.09-.65-.65-.22-.75-.65-.86-1.4a4.77,4.77,0,0,0-.22-2.48c-.43,0-.32-.54-.22-.75.54-1.4,1.08-2.69,1.51-4a2.57,2.57,0,0,1,1.61-1.4,11.91,11.91,0,0,1,3.66-1.61,59.2,59.2,0,0,1,5.81-1.72c2.58-.86-1.08.11,1.29-.75,1.18-.32,1.29-.43,1.72-1.62.86-2.58.54-1.51,1.4-4,1.4-4.31,2.91-8.72,4.41-13.13.86-2.37,1.61-5,2.26-7.21,1-3.12,2-6.14,3-9.15a25.05,25.05,0,0,1,1.08-3.44,6.41,6.41,0,0,1-1.29.21,23.29,23.29,0,0,1-5.27,1.51,7,7,0,0,1-2-.21c-1.29-.22-1.83-1.51-1.83-3V19.84A21.11,21.11,0,0,1,17.75,14a13.44,13.44,0,0,1,1.18-3.12,1.33,1.33,0,0,1,1.18-1c1.51.32,3.44-.75,5-1.18l3.55-.65c2.48-.65,5.06-.75,7.53-1.51a48.68,48.68,0,0,1,12.92-.86A32.67,32.67,0,0,1,59.94,8.11,11,11,0,0,1,65.22,13c1.4,2.37,1.29,5.6.75,8.93a37.3,37.3,0,0,1-2.37,8c-1.4,2.91-2.48,5.92-4.09,8.83-.75,1.18-1.51,2.26-2.26,3.55a52.35,52.35,0,0,1-5.17,6.89,49.23,49.23,0,0,1-4.52,5,69.12,69.12,0,0,1-7.75,7.1,100.4,100.4,0,0,1-13.89,8.5c-1.08.54-2,1.08-2.91,1.51,0,.22,0,.22-.11.32A22,22,0,0,1,25.5,70.86ZM45.41,45.24A62.31,62.31,0,0,0,54,34.59c1.83-3.34,3.23-6.46,3.55-9.69A1.08,1.08,0,0,0,57,23.5c-1.4-.43-2.91-.86-4.41-1.18a40.45,40.45,0,0,0-16.36.54,5.69,5.69,0,0,0-1.61.54c-.22,0-.54.43-.43.65a12.75,12.75,0,0,0-1.4,2.69c-.86,3.12-1.94,6.13-3,9.15-.86,2.8-1.83,5.49-2.8,8.29-.43,1.72-.65,3.44-1.29,5.38-5.92,12.7.54,11.73,9.8,3.88A59.75,59.75,0,0,0,45.41,45.24Z"/><path class="cls-1" d="M107.73,46.21A11,11,0,0,1,106,50c-.32.11-.43.43-.65.54a16.06,16.06,0,0,1-1.18,1.4c-.22.21-.54.43-.65.75A3,3,0,0,1,102.24,54a1.08,1.08,0,0,0-.54.43c-.65.75-1.51,1.4-2.15,2a5.36,5.36,0,0,1-2,1.08,20,20,0,0,0-2.69.54,16.85,16.85,0,0,1-2.48.54h-1a11,11,0,0,1-3.66-1.51,2.36,2.36,0,0,0-.54-.32,6.31,6.31,0,0,1-2.58-1.83,11.53,11.53,0,0,0-2.26,1.4,7.21,7.21,0,0,0-1.18.75.37.37,0,0,0-.22.11,4.33,4.33,0,0,1-2.37,1.29,5.71,5.71,0,0,1-4.41-.32,10.93,10.93,0,0,0-1.61-.75,7.92,7.92,0,0,1-5.17-7,8.32,8.32,0,0,1,.86-4.84,19.4,19.4,0,0,1,2.58-4c0-.11.11-.21.22-.32a66.35,66.35,0,0,1,4.74-6.14,17.9,17.9,0,0,1,4.09-3.34,2.56,2.56,0,0,1,1-.22,11.88,11.88,0,0,1,2-.21h.32a14,14,0,0,0,2.26.54,1.54,1.54,0,0,0,.65.21c.54.11,1,.11,1.18.54a.33.33,0,0,0,.21.11c.54,0,1,.54,1.51.54a.82.82,0,0,1,.54.22,10.3,10.3,0,0,1,1.83,1.94c.11.32.22.54.32.86a1.71,1.71,0,0,1-1,2.15A14.29,14.29,0,0,0,88,40.18v.11A28.55,28.55,0,0,0,84.48,44a16.7,16.7,0,0,1-1.29,1.4A41.29,41.29,0,0,0,80.6,48.8a18.22,18.22,0,0,1-1.08,1.51,2.23,2.23,0,0,0-.43.65A11.8,11.8,0,0,0,77.8,54.5c-.11.11,0,.21,0,.43a1.53,1.53,0,0,0,.43-.32,33.35,33.35,0,0,1,3.55-3.12,6.6,6.6,0,0,0,1.61-1.83,7,7,0,0,1,.86-1,19.8,19.8,0,0,0,1.83-2.37c.75-1.18,1.51-2.37,2.26-3.66a2.41,2.41,0,0,1,2.37.75l.65.65a5.61,5.61,0,0,1,1,3.12c0,.22-.11.32-.22.54-.43,1-1,2-1.51,3A4.15,4.15,0,0,0,90.29,53a13.45,13.45,0,0,0,1,2.69,1.13,1.13,0,0,0,1,.54,8.6,8.6,0,0,0,2.26-.54,18.56,18.56,0,0,0,2-1.08c.75-.43,1.51-.86,2.37-1.4.54-.54,1.18-1,1.72-1.51,1.4-1.4,3.55-5,5-6.35.11-.11.22-.11.32-.21A3.21,3.21,0,0,1,107.73,46.21Z"/><path class="cls-1" d="M152.28,47.18c.75-1,1.4-1.94,2.15-3.12a9.42,9.42,0,0,0,.65-1.08l.11-.11v.43c-.32,1.4,1.51,1.08.54,2.58a19.33,19.33,0,0,0-2.15,3c-.11.75-1.83,2.15-2.37,2.8a8.26,8.26,0,0,0-1.08,1.94c-.65.86-1.18,1.61-1.94,2.48a12.49,12.49,0,0,0-1.51,2,7.12,7.12,0,0,1-1.51,2.15c-1.51,1.83-1.61,2.15-3.23,4-.75.75-2.26,3.87-3.12,4.52a6.56,6.56,0,0,0-1.29,1.61c-.75.75-8.83,4.31-9.47,4.74-.32.32-.43.54-.65.65a3.58,3.58,0,0,0-1.83,2.48,49,49,0,0,1-3.23,6.24,31.26,31.26,0,0,0-2.15,3.55,8.23,8.23,0,0,1-2.37,3.34c-.86,1.08-2.15,1.83-3,3.12a23.84,23.84,0,0,1-5.92,4c-1.61.86-4.31.75-6,.75-6.24,1.4-14.64-3.87-15.93-9.9a2.65,2.65,0,0,1,1.83-2.58c1.18-.32,2.48-.54,3.55-.75a41.73,41.73,0,0,0,11.84-3.34,72.88,72.88,0,0,0,7.75-3.12A7.7,7.7,0,0,0,114.61,77c.75-1.62,3-6.57,3.87-8.07,7.86-14.85,5.17-8.4-4.09-5.38-1.29-.22-4.84-2.37-5.6-3.55s-5.92-8.29-5.38-9.9c.54-1.94.75-1,.65-3.77.32-3.12,1.29-4.52,1.94-8.18.22-1,1.4-3.23,1.4-4.52.86-1.62,1.72-5.38,2.8-6.67a22.37,22.37,0,0,1,2-3.44,6.12,6.12,0,0,1,1.18-1.29c.32.22.75.54,1.08.75.54,1,2.8,2.26,4,3a9.76,9.76,0,0,1,1,1.08c.21.32.32.65.43.75a5.92,5.92,0,0,1,2.26,4.31,5.39,5.39,0,0,1-.32,3.44c-.54.75-.86,1.83-1.61,2.91-.54,1.29-1.4,2.8-2.15,4.2-.54,1.4-1.72,2.69-2.58,4.2-.43.54-.75,1.29-1.4,2.15-12.81,19.48,15.07-4.09,17.54-8,1.61-2.48.54-1.18,1.94-3.77a27.41,27.41,0,0,0,2.58-3.34,3.21,3.21,0,0,1,1.08-1.51c.54-.65.75-.65,1.29-.43.86.43,2.15,3.23,1.61,4.74a1.68,1.68,0,0,1-.65,1.29A27.92,27.92,0,0,0,138,41.15a7.2,7.2,0,0,1-.86,2.69,56,56,0,0,0-3.34,8.39c-.43,1.72-4.09,11.3-4.31,12.81-.11,5.38,13.88-8.07,17-11.19C148.62,51.59,150.45,49.44,152.28,47.18ZM107.08,91.42c4.2-4.2,7.21-7.75-3.66-3.66-2.48.65-5,1.08-7.43,1.51a14.16,14.16,0,0,0-2.26.43C89.32,94,101.69,99.17,107.08,91.42Z"/><path class="cls-1" d="M173.7,45.57a63.08,63.08,0,0,0-4.41,5,36.47,36.47,0,0,1-3.34,3.77,10.51,10.51,0,0,0-1.83,2.48,12.41,12.41,0,0,1-1.51,2.15,2.53,2.53,0,0,0-.86,1.08c-1.08,1.08-2.69,8-3.55,9a1.69,1.69,0,0,1-1.4.65,3.66,3.66,0,0,0-1.51.54,2.14,2.14,0,0,1-1.72.32,19.74,19.74,0,0,0-3.55-.32,17.66,17.66,0,0,0-2.15-.32c-1.61-.54-2.58-2.26-2.15-4.52a84.52,84.52,0,0,1,3.23-11.84,57.16,57.16,0,0,1,2.48-5.92q1.62-4,3.55-8.07c1.18-2.26,2.58-4.52,3.77-6.57a33.53,33.53,0,0,0,2-3.87A11.08,11.08,0,0,0,162,26.19c0-.32.11-.43.11-.75a1,1,0,0,1,1.29.11,5.39,5.39,0,0,0,2.91,1.94c.11,0,.43.32.54.54.54.65,1.08,1.4,1.61,2.15a5,5,0,0,1,.43,3.12,30.35,30.35,0,0,1-3.34,12.05c-.86,1.83-.43,1.51-1.61,3.23-1.4,2.26-.43,3.66,1,2.91a46.7,46.7,0,0,0,4.41-4.74c2.48-3,3.66-3.77,6-6.35.54-.54,1.4-1.4,2-2.15a3.14,3.14,0,0,1,2.26-1.62h1.08c1.4.22,2.69.11,4,.32a2.94,2.94,0,0,1,1.94,1.61,2.8,2.8,0,0,1,.43,1.61,10.17,10.17,0,0,1,0,4.41c-.43,2-.65,3.23-1.18,5.27a32.12,32.12,0,0,0-.65,8.93c.21,2.58,3.77,1.83,4.84,1.29.54-.22,1-.54,1.61-.75,2-1.29,6.57-4.84,8.07-6.78.32-.43,3.66-2.91,4.09-3.44.86-1.29.86-2,1.72-3.23a3.75,3.75,0,0,1,.65-1,.8.8,0,0,0,.11.54c.11.65-.11,1.08,0,1.72s.11-.11-.22.65a2.17,2.17,0,0,0-.43,1.4,5.08,5.08,0,0,1-.65,1.62c-1,1.4-2,3.66-3,4.73s-5.06,5.6-6,6.46a8.09,8.09,0,0,1-1.61,1c-.32.11-.75.22-1.29.43-1.51.65-7.21.86-9,.22-4.63-1.51-6.89-5.27-7-11.41.11-1.4.21-2.69.21-4.09.43-2.26.86-7.43-1.51-5A21.54,21.54,0,0,1,173.7,45.57Z"/><path class="cls-1" d="M245.16,46.21A11,11,0,0,1,243.44,50c-.32.11-.43.43-.65.54a16.05,16.05,0,0,1-1.18,1.4c-.22.21-.54.43-.65.75A3,3,0,0,1,239.67,54a1.08,1.08,0,0,0-.54.43c-.65.75-1.51,1.4-2.15,2a5.37,5.37,0,0,1-2,1.08,20,20,0,0,0-2.69.54,16.85,16.85,0,0,1-2.48.54h-1a11,11,0,0,1-3.66-1.51,2.37,2.37,0,0,0-.54-.32A6.3,6.3,0,0,1,222,54.93a11.49,11.49,0,0,0-2.26,1.4,7.15,7.15,0,0,0-1.18.75.38.38,0,0,0-.22.11A4.32,4.32,0,0,1,216,58.48a5.71,5.71,0,0,1-4.41-.32,11,11,0,0,0-1.61-.75,7.92,7.92,0,0,1-5.17-7,8.31,8.31,0,0,1,.86-4.84,19.43,19.43,0,0,1,2.58-4c0-.11.11-.21.22-.32a66.6,66.6,0,0,1,4.74-6.14,17.88,17.88,0,0,1,4.09-3.34,2.57,2.57,0,0,1,1-.22,11.9,11.9,0,0,1,2-.21h.32a14,14,0,0,0,2.26.54,1.53,1.53,0,0,0,.65.21c.54.11,1,.11,1.18.54a.33.33,0,0,0,.22.11c.54,0,1,.54,1.51.54a.82.82,0,0,1,.54.22,10.32,10.32,0,0,1,1.83,1.94c.11.32.21.54.32.86a1.71,1.71,0,0,1-1,2.15,14.32,14.32,0,0,0-2.69,1.72v.11A28.45,28.45,0,0,0,221.91,44a16.7,16.7,0,0,1-1.29,1.4A41.13,41.13,0,0,0,218,48.8,18.22,18.22,0,0,1,217,50.3a2.27,2.27,0,0,0-.43.65,11.88,11.88,0,0,0-1.29,3.55c-.11.11,0,.21,0,.43a1.51,1.51,0,0,0,.43-.32,33.5,33.5,0,0,1,3.55-3.12,6.61,6.61,0,0,0,1.61-1.83,7.12,7.12,0,0,1,.86-1,19.73,19.73,0,0,0,1.83-2.37c.75-1.18,1.51-2.37,2.26-3.66a2.41,2.41,0,0,1,2.37.75l.65.65a5.61,5.61,0,0,1,1,3.12c0,.22-.11.32-.22.54-.43,1-1,2-1.51,3a4.14,4.14,0,0,0-.32,2.26,13.54,13.54,0,0,0,1,2.69,1.13,1.13,0,0,0,1,.54,8.6,8.6,0,0,0,2.26-.54,18.65,18.65,0,0,0,2-1.08c.75-.43,1.51-.86,2.37-1.4.54-.54,1.19-1,1.72-1.51,1.4-1.4,3.55-5,5-6.35.11-.11.21-.11.32-.21A3.22,3.22,0,0,1,245.16,46.21Z"/><path class="cls-1" d="M275.19,23.29C277,18.12,288.1,4.34,289.93,2.51a3,3,0,0,1,2.69-1.18c15.28-8.18,21.31,23.79,14.32,30.89a7,7,0,0,1-6.67,2.26c-1.08-.32-2.15-.54-3.23-.75-.54-.11-.75-.32-.75-.86.11-2.69.32-5.49.43-8.18.11-1.29.21-2.8.32-4.09.22-2.48.32-5.17.43-7.64v-.86c1.18-8.29-5.7-2.37-5.92-.65a7.18,7.18,0,0,1-1.51,2.8,13.92,13.92,0,0,0-3,4.52c-1,2.37-2.15,4.52-3,6.78a34.52,34.52,0,0,0-2.58,9c-.43,2.37-.75,4.63-1,7-.21,2.15-.86,4.63-1.08,6.89a43.37,43.37,0,0,0,.21,5.27c.11.86.22,1.51.32,2.48,1.72,12.05,5.81,5.38,7.43,1.08.75-1.94,1.08-3.77,1.62-5.6a2.63,2.63,0,0,0-.11-2.37C288,47.61,289,45.89,291,45a28.7,28.7,0,0,1,6.57-1.4c2.37-.32,3.34,1.08,3.55,2.91a8.11,8.11,0,0,1-.54,3c-2.91,6.67-6,17.22-9.9,21.2-.43.22-.75.86-1.08,1.29a2.75,2.75,0,0,1-3,1.61,14.47,14.47,0,0,0-4.31,0,10.27,10.27,0,0,1-5.06-.86,13.86,13.86,0,0,0-2-.11,2.83,2.83,0,0,1-1.62-.22,11.21,11.21,0,0,1-5.49-4,4.23,4.23,0,0,1-1.51-2.69,11.08,11.08,0,0,0-.75-2.26A20.36,20.36,0,0,1,265,56a25,25,0,0,1,.65-4.74c.65-2.58,1.18-5.06,1.94-7.75.75-2.15,1.72-4.63,2.37-6.78.54-1.29,1-2.58,1.51-3.77H271c-.11.21-.32.54-.54,1A9.45,9.45,0,0,1,269.7,35C271.42,31.14,273.14,27.16,275.19,23.29Z"/><path class="cls-1" d="M371.95,47.4l-1,.54a6,6,0,0,0-1,.75,4.5,4.5,0,0,1-1.61,1.19,18.6,18.6,0,0,0-3.23,1.72l-.43.54a1.55,1.55,0,0,1-1.19.75l-1.08.32a3.6,3.6,0,0,1-2.58.22h-.22c-1-.22-1.29-.11-1.61.75a9.75,9.75,0,0,0-.86,2.26,4.23,4.23,0,0,1-.86,1.51,19.84,19.84,0,0,1-1.51,1.51l-1.08.86a1.07,1.07,0,0,1-.54.43,4.19,4.19,0,0,0-1.61,1.19l-.75.32a.4.4,0,0,1-.32.11c-.65.11-1,.65-1.61.75a11,11,0,0,0-1.83.11,1.86,1.86,0,0,1-1.08.11,11.13,11.13,0,0,1-3.23-.43,9.55,9.55,0,0,1-4.63-3.34,5.83,5.83,0,0,1-1.18-4,18.07,18.07,0,0,1,.54-4.84v-.65a.47.47,0,0,1-.32-.11l-.65.21a5.28,5.28,0,0,1-3.12.43c-.54-.11-.65,0-.75.54l-.22.65a4.32,4.32,0,0,0-.32,2,3.77,3.77,0,0,1-.65,2.37,18.34,18.34,0,0,0-1.4,2.48,21.06,21.06,0,0,1-2.69,3.44,6.56,6.56,0,0,1-2.26,1.94c-1.29.75-2.58,1.83-4.2,2a12.72,12.72,0,0,1-2.15.32,16.08,16.08,0,0,1-4-.43,4.8,4.8,0,0,1-2.58-1.72,11.41,11.41,0,0,1-1.94-3.55,5.61,5.61,0,0,1-.32-1.94,13.34,13.34,0,0,0-.32-1.83c0-.11-.11-.32-.22-.32a.89.89,0,0,1-.32-.86,13.88,13.88,0,0,1,1.4-6.57,23.47,23.47,0,0,1,3-5,28.79,28.79,0,0,1,4.74-4.84l1.4-1.29,2.26-1.29a2.8,2.8,0,0,1,2.58.32A10.87,10.87,0,0,1,326,38l.75.54a8.14,8.14,0,0,1,1.51,1.18,11.8,11.8,0,0,0,1.61.86,16.3,16.3,0,0,1,2.37,1.18,2.61,2.61,0,0,1,1.51,2.69,7.25,7.25,0,0,0-.22,1.51.39.39,0,0,0-.11.32c0,.65-.11,1.29-.11,1.83a.67.67,0,0,0,.86.21l2.15-.43a19.23,19.23,0,0,1,2-.54,1.72,1.72,0,0,0,1.29-1,22.88,22.88,0,0,1,3-3.55,13.12,13.12,0,0,1,1.83-1.61,14.92,14.92,0,0,1,3-1.29.84.84,0,0,1,.86.21l2.15,1.29,2.37,1.62a3.37,3.37,0,0,0,1-.75l.54-.43a.86.86,0,0,1,1.08-.21l2.26,1.18A4,4,0,0,1,359.89,46a8.35,8.35,0,0,1,.11,3.66v1.08h.75a25.58,25.58,0,0,0,6.35-1.94,43.9,43.9,0,0,0,5-2.69Zm-47-1.94-1.72,3.66-1.4,2.37a8,8,0,0,1-.75,1.29l-1.72,3.12a6.41,6.41,0,0,0-.54,5.06,3.28,3.28,0,0,0,1,1.4.65.65,0,0,0,.86.11,4.38,4.38,0,0,0,1-.54,11.09,11.09,0,0,0,3-3.34A41.36,41.36,0,0,1,327.06,55a21.55,21.55,0,0,0,2.69-4c.54-1.29.86-1.18-.65-2.15a5.82,5.82,0,0,1-1.72-1.51,10.39,10.39,0,0,1-1.51-2.26c0-.11-.22-.22-.43-.54Zm4.09-.54a6.38,6.38,0,0,0,.11,2,1.8,1.8,0,0,0,1.29,1.19c.32.11.54.11.75-.32a10.84,10.84,0,0,0,.43-2.58l-.43-2-.32-.43a.87.87,0,0,0-1.61.22,3.13,3.13,0,0,0-.22,1Zm8.4,7.43a14.73,14.73,0,0,1-.21,2.15c0,.11-.11.32,0,.43a.22.22,0,0,0,.32.22l.43-2.48a9.18,9.18,0,0,0,.43-2.37A4,4,0,0,0,337.4,52.35Zm.75,1.18a11.13,11.13,0,0,0-.43,3.23v.32a7.81,7.81,0,0,1,.43,1.51c0,.21.11.43.43.32a4,4,0,0,0-.11-1.18c.22.11.32.21.32.43a4.58,4.58,0,0,0,.65,2l.32.43H340c.11-.11.11-.11.11-.22A.65.65,0,0,0,340,60a3.59,3.59,0,0,1-.54-1.61,1.53,1.53,0,0,0-.21-.65,5.84,5.84,0,0,1-.65-2.69,4.34,4.34,0,0,0,0-1.19c0-.21-.11-.32-.21-.65C338.26,53.42,338.15,53.42,338.15,53.53ZM339.87,59a.21.21,0,0,0,.11.32.15.15,0,0,0,.21,0c0-.22-.11-.32-.11-.43S339.87,58.91,339.87,59Zm1.62-6.89h-.11c-.11.22-.22.32-.22.54a3.09,3.09,0,0,0,.11,1.4C341.81,53.85,341.92,53.21,341.49,52.13Zm.86.54.11.11c.11,0,.11-.11.22-.11s0-.11-.11-.32C342.45,52.46,342.35,52.56,342.35,52.67Zm2,1.4c-.11,0-.32.11-.32.22a1.1,1.1,0,0,0,.11.32c.22,0,.32-.11.54-.22C344.5,54.29,344.5,54.07,344.39,54.07Zm-.22-5.17V49h.11A.11.11,0,0,0,344.18,48.9Zm.43,3.87v-.11h-.21c-.22.22-.22.32-.11.65A.59.59,0,0,0,344.61,52.78Zm.32-1.29c.65-.22.65-.75.86-1.18a1,1,0,0,0,.11-.75h-.11c-.11.11-.22.22-.22.32Zm10.33.22a5.28,5.28,0,0,1-1.94-1.83,8.63,8.63,0,0,1-1.18-2.48q-.32-.81-1-.32a6.46,6.46,0,0,1-1.4,1,3.12,3.12,0,0,0-1.18,1.18c0,.11-.21.22-.32.32a2.9,2.9,0,0,0-.86.75,3.37,3.37,0,0,0-1,1.18,8.09,8.09,0,0,0-.65,1.4,14.91,14.91,0,0,0-.54,1.72,12.36,12.36,0,0,0,0,4,1.4,1.4,0,0,0,1.94,1.18.38.38,0,0,0,.22-.11,20.3,20.3,0,0,0,4.84-3,10.77,10.77,0,0,0,1.72-1.4l1.62-2a1.19,1.19,0,0,0,.43-1Zm-8.72-3.77-.32.43.11.11a.34.34,0,0,0,.32-.32c.11-.11,0-.11,0-.22Zm7.32-.32a1.18,1.18,0,0,0,.11.54,3.09,3.09,0,0,0,2.58,2.8c.65.22.86.11,1.19-.43l.65-1.51a4.61,4.61,0,0,0,.43-2.69,7.36,7.36,0,0,0-.54-1.4L357,43.63a1.69,1.69,0,0,0-2.58.22.83.83,0,0,0-.22.86,3.89,3.89,0,0,0,.43,1C353.76,46.1,353.76,46.86,353.86,47.61Z"/><path class="cls-1" d="M383.89,49.33a105.08,105.08,0,0,1,5-10.55,28.21,28.21,0,0,0,1.83-3,18.84,18.84,0,0,0,1.72-2.69,2.5,2.5,0,0,1,1.72-1.29c.75,0,1.4-.11,2-.11,1.29,0,2,1,2.69,2.37v.43c.21,1.4.54,2.91.75,4.41a28.87,28.87,0,0,1,.11,4.31,26.43,26.43,0,0,1,0,2.91c.54.32.43.75.54.65s1,.11,1.18-.11.32-.32.43-.54a6.43,6.43,0,0,0,1.29-1.18c.32-.54.65-.54,1.08,0a1,1,0,0,1-.43.86,2.4,2.4,0,0,0-.32.54,1.14,1.14,0,0,1-.65.75l-.32.32c-.11.11-.32.21-.32.32s-.21.11-.32.21a1.5,1.5,0,0,1-1.19.54,2.12,2.12,0,0,0-1,.43.65.65,0,0,1-.86,0,19.44,19.44,0,0,0-2.26-.86,4.39,4.39,0,0,1-2.8-3,13.13,13.13,0,0,1-.32-6.14,25.48,25.48,0,0,0,.32-2.69l.32-1.94a1.53,1.53,0,0,0,.11-1.18c-.11,0-.32-.11-.32.11a2.37,2.37,0,0,0-.43.54c-.43.86-1,1.72-1.51,2.69a5.16,5.16,0,0,0-.65,1.94c.11.43-.21.75-.32,1.08a32.66,32.66,0,0,0-2.48,5.6c-.54,1.51-1.29,2.8-1.94,4.31-1,2.26-2.15,4.31-2.91,6.67-.22.75-.65,1.61-1,2.48-.21.65-2.91,5.81-3.55,6.35,0,.21-.32.32-.54.54-1.29,1.83-2.8,1.72-4.52,1.29-.21.21-.43,0-.65-.22-1.72-.43-2.58-2-3-4.2a32.6,32.6,0,0,1-.32-5.6c.11-2.8.21-5.6.43-8.39.54-3.12.11-2.91,1-5.81.75-4.2.32-3.55,1.83-7.75a15.84,15.84,0,0,1,.75-2c.75-1.94,1.4-3.66,2.26-5.38.43-1.4.86-1.61,1.94-1.4a13.87,13.87,0,0,1,2.69.43,4,4,0,0,1,2.15,1.08A23,23,0,0,0,386,31a5.56,5.56,0,0,1,.54,5.06c-.54,2.15-.75.54-1.29,2.8-1.4,4.52-4,8.07-5.17,12.16C378.51,56.22,383.46,51.16,383.89,49.33Z"/><path class="cls-1" d="M446.74,70.54a5,5,0,0,0,.75-.75c1.29-1.72-.32-.11.86-1.94a17.07,17.07,0,0,1,1.4-2.37c1.08-1.62,1-3,2.91-6.78,2.58-3.55,4.31-7.32,6.46-11,1.29-2.26.86-3.87,2.91-2.37,1.29,1-.43.43-.43,2.37.75,0-1.29,1.94-1.08,1.72a1.48,1.48,0,0,1-.21,2c-1,.65.21,3.12-1.51,2.58-1.4,2.15-2.8,2.69-3.77,4.84-.43,1.72-1.4.21,0,1.61l-1,1.18c-1.94,2.58-1.72,2.8-2,4.41-.22.11-.32.22-.32.32-.54.75-1,1.4-1.51,2a2.58,2.58,0,0,0-.65,1.19,12.41,12.41,0,0,1-1.29,2.69c-.43.65-.86,1.29-1.29,1.83a9.64,9.64,0,0,1-2.15,2A12.43,12.43,0,0,1,442.55,78c-1.29.65-2.26,1.4-3.55,1.94a6.41,6.41,0,0,1-.43.65,7.27,7.27,0,0,1-2.91-.54c-2.15-.86-2.26-.43-4.09-2.58A14.34,14.34,0,0,1,427.91,73a14.52,14.52,0,0,1-1.51-3.77c-.11-.22-.11-.43-.32-.54a1.93,1.93,0,0,1-.43-1.51,10.84,10.84,0,0,0-.43-2.48,25.18,25.18,0,0,1-.54-3,4.67,4.67,0,0,1-.11-1.72c-.11-.21-.32-.32-.32-.54l-.65.65a5.51,5.51,0,0,0-1.08,2.26,4.64,4.64,0,0,1-3.34,3.77,3.55,3.55,0,0,0-1.4.75,3.18,3.18,0,0,1-2.8.65A15.75,15.75,0,0,1,410.9,66a8.61,8.61,0,0,1-4.09-4.41,6.69,6.69,0,0,1-.86-3.77,4.56,4.56,0,0,0-.22-1.18,4.32,4.32,0,0,1,0-1.18,17.91,17.91,0,0,1,.32-4.2,28.66,28.66,0,0,1,2.48-7.43,33.72,33.72,0,0,1,5-6.89,17.61,17.61,0,0,1,7.75-4.84,5.68,5.68,0,0,1,1.94-.43,2.53,2.53,0,0,1,.86.22c.65.21,1.29.54,1.83.75,3.87,5.27,3.12-3.23,4.73-6.24.22-.43.32-1,.54-1.4a12.76,12.76,0,0,0,.75-2.15c.43-1,.86-1.94,1.18-2.91a8.13,8.13,0,0,0,.65-1.72c.86-1.51,1.72-3.12,2.48-4.74a19.15,19.15,0,0,1,2.48-3.34,30.54,30.54,0,0,0,2.8-2.48,13.28,13.28,0,0,1,1.29-1A22.93,22.93,0,0,0,445.45,5a3.73,3.73,0,0,1,4.2,0c1,.54,1.61,1.4,2.69,2a2.17,2.17,0,0,1,.43.86,13.12,13.12,0,0,1,.11,3.55c-.11.75-.22,1.51-.32,2.37a4.85,4.85,0,0,1-.54,2.69c-.11.22,0,.43-.11.65a5.3,5.3,0,0,1-.65,1.83,14.65,14.65,0,0,0-1.4,2.58,26.56,26.56,0,0,1-1.08,2.58,11.7,11.7,0,0,0-.54,1.83A10.4,10.4,0,0,1,447,28.67a6.76,6.76,0,0,0-1.72,2.91,4.14,4.14,0,0,1-1.61,1.94,7,7,0,0,0-1.4,1.72,11.82,11.82,0,0,1-2.48,4c-.86,1.08-.32,1.4-.86,2.48a1.86,1.86,0,0,0-.65,1.18,23.73,23.73,0,0,0-.54,2.69,13,13,0,0,1-.65,2.58,13.87,13.87,0,0,1-.11,2,.71.71,0,0,1-.22.75,8.08,8.08,0,0,0,0,1.62,4.82,4.82,0,0,1,0,2.15v2.8c0,.22,0,.32.11.43.32.65.11,1.29.22,1.94a19.15,19.15,0,0,0,1,4.31,1.65,1.65,0,0,1,.65,1.08c.21.32.43.75.32,1a1.53,1.53,0,0,0,.54,1.4,12,12,0,0,0,3,3.55c-.32.11-.65,0-.86.32-.11-.22,0-.54-.32-.75,0-.11-.11-.21-.43,0a2.47,2.47,0,0,1,.75.75,4.69,4.69,0,0,0,1.61.86,1.14,1.14,0,0,1,.21-.54h-.11C445.56,71.51,445.67,71,446.74,70.54Zm-28-17.76c-.22.32-.32.65-.54,1-.54,1-1,1.94-1.51,3a8.41,8.41,0,0,0,.43,6c0,.21.21.32.32.43a5.5,5.5,0,0,0,1.94-1.51c.86-1.08,1.94-2.15,2.91-3.23a8.65,8.65,0,0,0,1.61-2.26c0-.21.11-.43.11-.65.11-.75.11-1.4.21-2.15a8,8,0,0,1,0-2.26c1.83-6,.32-8.4-3-2.8C420,49.66,419.62,51.16,418.76,52.78ZM431,75c-.11-.11,0-.32,0-.43l-.32-.32-.21.11c0,.11.11.21.32.32a.38.38,0,0,0,.11.22c.21.32.21.54.43.86a8.48,8.48,0,0,0,4.2,3c.11.11.43.11.86.11a5,5,0,0,0-.75-.75l-4-3a20.92,20.92,0,0,1,4.52-.21Zm3.66,1.83.11.11c-.11-.11,0-.11,0-.11v-.11A.11.11,0,0,0,434.69,76.78Zm1.18-9.47h-.21c.32.11.32.11.32.22v-.11Zm.32.86v-.11l-.11.11Zm.43.65-.11.11c.11.11.11.11.11.21h.22C436.84,69,436.62,68.92,436.62,68.82Zm1.83-2.58h.22c-.11-.11-.11-.22-.22-.32a15.71,15.71,0,0,0-.75-2c-.32-.65-.32-1.29-1.08-1.94a12.6,12.6,0,0,0,1.62,3.66c0,.11,0,.32.21.32A.2.2,0,0,1,438.45,66.23Zm2,5.06a6.36,6.36,0,0,0-.86-.86A6.64,6.64,0,0,0,438,68.06c-.11-.11-.11-.32-.54-.11.86,1.08,1.51,2.15,2.37,3.12,0,.32.32.43.65.65Zm3.44-41.65a33.27,33.27,0,0,0,2.58-3.77c.75-1.83,1.61-3.55,2.58-5.38a4,4,0,0,0,.32-1.61,3.19,3.19,0,0,1,.21-1.4c1.08-2.48,1.19-5.27,1.29-8.07a11.83,11.83,0,0,0-.21-1.94c-.43-1-.86-1.08-1.61-.65-.22.21-.54.32-.65.65a9.79,9.79,0,0,1-1.61,2.48,3.43,3.43,0,0,0-.32,1,2.92,2.92,0,0,1-.65,2,5.74,5.74,0,0,1-1.4,2,1.26,1.26,0,0,0-.75,1.18,3.58,3.58,0,0,1-.22,1.83,9.32,9.32,0,0,0-.75,2.26c-.65,2.58-1.94,4.63-2.26,7.21-.75,3.55-3.23,10.55,1.29,5.81A41,41,0,0,1,443.94,29.64Z"/><path class="cls-1" d="M463.53,81.73c-.43,0-.43,0-1.4.65v-.32c-.22-.11-.22-.11-.32-.32-.22.21-.54.21-.65.54a4.92,4.92,0,0,1-1.72.75c-.21.11-.21.11-.75-.11.11-.21.11-.32.22-.54-.32,0-.54.22-.86.22a.59.59,0,0,1-.54.32c-.86.54-1.29.32-1.72-.54a4.2,4.2,0,0,0-.75-1.72,7.1,7.1,0,0,1-1-3.12,5.32,5.32,0,0,1,.32-1.72,11.6,11.6,0,0,1,1.83-3.88,36.58,36.58,0,0,1,5.6-6.46c4.09-3.77,3.44-4.84,2.15-8.07a25.52,25.52,0,0,0-2.8-6.24c-.11-.43-.43-.75-.54-1.18-1-1.4-3-9.26-3-11.19.22-.22.11-.43.32-.86a2.69,2.69,0,0,1,.54-1.94c.11-.32.43-1,.11-1.51.32-.54.43-1.29.75-1.83s.43-.86.65-1.51a5,5,0,0,1,.65-1l1-1.94c.43-.86,1.08-1.51,1.51-2.26.11-.21.21-.21.43-.32a1.51,1.51,0,0,0,.65-.75c.32-.43.54-.65.75-.43a5.55,5.55,0,0,1,1.94,1.29.33.33,0,0,1,.21.11c1,.43,2.69,4.41,2.8,5.81a1.16,1.16,0,0,0,.22.86,6,6,0,0,1-.22,1.94,14,14,0,0,1-.86,2.8c-.22.43-.32.75-.75.86a2.92,2.92,0,0,0-.86,1.08c-.11.32-.54.65-.43,1.19a.53.53,0,0,1-.11.32,12.81,12.81,0,0,0-.86,1.72,6.83,6.83,0,0,0-.11,3.87,4.84,4.84,0,0,0,1.08,1.4c1.4,1.18,2.58,5.27,3.77,6.46.54.43.54,1.61,1,2,1,2.37,4.41-.54,7.21-1.29,1.61-1.18,3.23-2.37,4.84-3.66a43.49,43.49,0,0,0,3.44-2.8,19.53,19.53,0,0,0,2-2.15c.54-.54,1.08-1.18,1.61-1.83a7.34,7.34,0,0,1,.43,1.08,2.06,2.06,0,0,1-.11,1.94c-.11.32-.32.54-.32.86a7.13,7.13,0,0,1-1,2c-.54.65-.86,1.51-1.4,2.15a16.5,16.5,0,0,0-1.4,1.29l-2.26,1.94-.43.43A36.19,36.19,0,0,0,481,58.81a11.4,11.4,0,0,1-1.18,1c-2.15,1.61-5.38,1.61-5.38,4.52.43,2.15.43,1.72-.22,4.31.11.32-.11.54,0,.86-.22.32-.11.43-.11.43-.43.65-.21,1.83-.43,2.48a1.29,1.29,0,0,1-.54.54c-.11.11-.21.11-.32.22a13.22,13.22,0,0,0-1.29,2c-.54,1.18-3.44,4.2-4.31,5.06a9.24,9.24,0,0,1-.86,1.08,5.11,5.11,0,0,1-2,1.29c-.11.11-.21.11-.21.21A3.39,3.39,0,0,1,462,84c-.21.11-.21.22-.43.32C462.24,83.35,462.88,82.59,463.53,81.73Zm-4.2-8.93a3,3,0,0,0-1.61,1.62,3.72,3.72,0,0,1-1.08,1.4,4.44,4.44,0,0,0-1.08,1.4,8,8,0,0,1-.32,1.72,1.24,1.24,0,0,0,.22,1.4c.43.54.86,1,1.29,1.51a.86.86,0,0,0,1.19-.11c.43-.32.75-.65,1.29-1.08s.86-1,1.29-1.4a8,8,0,0,0,2.37-2.91,2.63,2.63,0,0,0,.43-.75,13.17,13.17,0,0,0,1.29-2.8c.54-1,.43-2,.86-3.12.11,0,.11-.22.11-.32,0-3.44-3.87,1.51-5.17,2.8A2.22,2.22,0,0,1,459.33,72.8Z"/></svg>